# xmcd
#
# Track frame offsets:
# 150
# 19863
# 36215
# 50846
# 63107
# 78368
# 95679
# 113055
# 126542
# 145940
# 165383
# 182513
# 200646
# 217160
# 233878
# 247652
# 261891
# 278167
#
# Disc length: 3840 seconds
#
#
# Revision: 2
# Processed by: cddbd v1.5.1PL2 Copyright (c) Steve Scherf et al.
# Submitted via: FreeRIP 2.944 
#
DISCID=050efe12
DTITLE=Milionário and José Rico - O Melhor de
DYEAR=2002
DGENRE=Sertanejo
TTITLE0=Sonhei com você
TTITLE1=Sonho de um Caminhoneiro
TTITLE2=Boneca Cobiçada
TTITLE3=Águas da Saudade
TTITLE4=Jogo do Amor
TTITLE5=Meu Mundo Vazio
TTITLE6=Praia Deserta
TTITLE7=Ilusão Perdida
TTITLE8=Sonho Alto
TTITLE9=Mãe de Leite
TTITLE10=Heroi da Velocidade
TTITLE11=Vai e Vem do Carreiro
TTITLE12=Quem Disse que te Esqueci
TTITLE13=Aprendi a Viver
TTITLE14=Vá Pro Inferno com seu Amor
TTITLE15=Denguinho
TTITLE16=Viva a Vida
TTITLE17=Estrada da Vida
EXTD=
EXTT0=
EXTT1=
EXTT2=
EXTT3=
EXTT4=
EXTT5=
EXTT6=
EXTT7=
EXTT8=
EXTT9=
EXTT10=
EXTT11=
EXTT12=
EXTT13=
EXTT14=
EXTT15=
EXTT16=
EXTT17=
PLAYORDER=
